<svg width="565" height="564" viewBox="0 0 565 564" fill="none" xmlns="http://www.w3.org/2000/svg">
<rect width="565" height="564" rx="180" fill="white"/>
<path d="M156.566 89.2182C154.632 89.3669 147.344 90.4379 146.005 90.7949C145.44 90.9436 144.309 91.2113 143.476 91.4196C138.806 92.4905 132.915 94.9299 130.476 96.7744C128.929 97.9345 127.055 100.701 126.311 102.843C124.437 108.466 126.817 116.914 132.231 123.608C133.897 125.72 134.522 127.029 133.897 127.118C132.648 127.326 131.607 127.118 128.007 125.809C122.95 123.994 120.927 123.578 115.513 123.34C110.158 123.102 105.219 123.727 102.007 125.065C99.4483 126.136 97.2469 128.159 95.6404 130.896C94.4802 132.889 92.4871 137.798 91.5649 140.981C91.2376 142.171 90.8212 143.212 90.6724 143.301C90.4939 143.42 90.4344 143.599 90.5237 143.747C90.5832 143.866 90.3452 145.622 89.9287 147.645C87.4893 159.901 89.066 175.876 93.796 186.883C95.2835 190.304 96.6519 193.249 96.8899 193.428C96.9791 193.517 97.3361 194.052 97.6336 194.618C99.6863 198.366 104.357 204.613 107.659 208.004C109.027 209.403 110.098 210.652 110.069 210.771C110.039 210.92 110.098 210.95 110.247 210.86C110.366 210.801 111.02 211.217 111.645 211.812C112.3 212.407 113.49 213.389 114.323 213.984C115.126 214.549 115.81 215.233 115.78 215.471C115.78 215.709 114.025 219.458 111.853 223.831C109.682 228.204 107.51 232.815 107.004 234.094C106.499 235.373 105.844 236.95 105.547 237.604C102.899 243.376 97.6931 259.499 95.7297 268.007C95.2537 270.001 94.5992 272.618 94.272 273.808C93.677 275.921 93.558 276.545 92.6061 282.376C92.3681 283.923 91.9516 286.124 91.7136 287.285C91.1781 289.724 90.2559 297.012 89.78 302.456C89.6015 304.569 89.3337 307.514 89.185 309.001C88.8578 312.303 88.8875 329.23 89.2147 332.502C89.3337 333.811 89.6015 336.548 89.7502 338.601C90.5237 347.466 91.9814 356.004 94.0638 364.185C96.4437 373.347 102.661 389.174 105.695 393.755C106.052 394.261 106.915 395.748 107.629 397.057C108.343 398.366 109.474 400.24 110.128 401.222C110.782 402.204 111.556 403.364 111.794 403.81C112.032 404.256 113.549 406.279 115.126 408.272C116.732 410.295 118.666 412.794 119.439 413.865C120.243 414.906 122.117 417.078 123.604 418.654C125.121 420.231 126.252 421.6 126.133 421.719C126.014 421.838 126.073 421.897 126.222 421.838C126.401 421.778 128.007 423.176 129.792 424.902C133.778 428.739 136.009 430.673 139.906 433.678C141.543 434.957 143.744 436.682 144.815 437.515C145.886 438.378 147.611 439.598 148.682 440.252C149.753 440.906 152.728 442.721 155.286 444.298C160.998 447.808 169.268 452.032 176.795 455.364C182.477 457.863 195.447 462.563 200.147 463.843C201.546 464.2 203.479 464.765 204.461 465.062C208.06 466.133 215.498 467.918 221.12 469.049C241.468 473.124 260.299 474.939 282.849 474.969C297.158 474.998 304.506 474.612 319.886 473.065C323.069 472.738 336.961 470.506 341.453 469.614C350.556 467.799 355.495 466.609 364.062 464.14C367.602 463.129 370.518 462.147 380.275 458.756C386.552 456.584 400.683 449.891 407.852 445.666C415.141 441.382 421.061 437.277 427.338 432.101C429.182 430.584 430.759 429.334 430.848 429.334C431.175 429.334 441.23 419.279 442.837 417.316C447.864 411.217 449.173 409.611 451.107 407.023C453.338 404.107 457.175 398.068 458.812 394.975C459.347 393.993 460.507 391.791 461.43 390.066C465.981 381.498 471.098 366.267 473.061 355.409C473.329 353.921 473.686 352.196 473.835 351.542C474.4 348.924 475.471 338.958 475.917 331.759C476.691 320.187 475.798 302.873 473.805 289.813C473.478 287.761 473.031 285.083 472.823 283.863C472.585 282.644 472.109 280.085 471.752 278.211C470.265 270.387 466.16 255.007 464.613 251.586C464.315 250.902 463.78 249.385 463.423 248.165C461.787 242.662 456.878 231.089 451.731 220.499C451.047 219.101 450.512 217.881 450.571 217.732C450.601 217.613 450.482 217.524 450.304 217.524C450.155 217.524 450.095 217.375 450.185 217.227C450.274 217.048 450.214 216.929 450.036 216.929C449.857 216.929 449.768 216.81 449.887 216.661C449.976 216.513 449.917 216.304 449.738 216.185C449.024 215.739 449.53 214.847 451.196 213.597C452.892 212.348 456.015 209.581 458.455 207.172C460.121 205.565 463.571 200.895 465.922 197.146C467.052 195.332 468.301 193.398 468.688 192.803C469.045 192.238 469.372 191.524 469.372 191.256C469.372 190.988 469.521 190.75 469.67 190.75C469.848 190.75 469.938 190.661 469.908 190.512C469.878 190.393 469.997 190.036 470.176 189.709C470.503 189.114 471.247 187.21 472.942 182.718C474.162 179.416 475.233 174.299 475.917 168.141C476.512 163.054 476.155 153.475 475.203 148.269C474.757 145.919 474.489 143.896 474.578 143.718C474.697 143.569 474.638 143.45 474.489 143.45C474.34 143.45 474.043 142.825 473.864 142.022C473.478 140.564 471.336 134.317 470.771 133.038C469.967 131.283 467.855 128.338 466.576 127.148C464.315 125.065 462.679 124.47 456.432 123.518C451.315 122.715 444.592 123.429 438.434 125.452C433.02 127.207 433.168 127.177 432.008 126.939C430.788 126.731 430.759 126.493 431.83 125.244C432.306 124.708 433.615 122.775 434.745 120.99C439.802 112.928 440.814 107.127 438.196 101.058C436.143 96.2984 429.45 92.907 417.312 90.4974C409.429 88.9207 404.461 88.6827 396.34 89.4562C390.985 89.9619 391.758 89.8429 385.928 91.2708C376.854 93.4722 367.424 98.2618 359.808 104.568C356.536 107.276 352.133 111.708 350.289 114.148C349.277 115.456 348.385 116.587 348.296 116.676C348.177 116.765 347.671 117.45 347.165 118.223C345.767 120.276 345.38 120.573 344.488 120.365C344.041 120.246 341.662 119.383 339.163 118.431C334.462 116.587 333.451 116.289 327.62 114.862C325.657 114.386 323.842 113.91 323.604 113.791C323.366 113.701 322.89 113.582 322.563 113.553C322.236 113.523 320.362 113.136 318.398 112.72C313.192 111.589 306.142 110.518 299.389 109.834C294.629 109.328 291.297 109.209 282.432 109.18C271.604 109.18 268.629 109.328 259.496 110.459C256.491 110.816 242.837 113.493 240.308 114.177C239.416 114.445 238.404 114.683 238.077 114.743C237.75 114.772 237.095 114.951 236.649 115.159C236.173 115.337 235.637 115.486 235.459 115.486C234.894 115.486 223.47 119.264 222.459 119.8C221.983 120.038 221.566 120.157 221.566 120.038C221.566 119.919 221.418 119.978 221.209 120.187C220.704 120.692 220.257 120.633 219.603 120.008C219.127 119.592 215.795 115.337 214.129 113.047C213.891 112.72 213.296 112.006 212.791 111.5C212.315 110.964 211.422 110.012 210.857 109.358C209.072 107.365 203.479 102.724 200.326 100.642C196.935 98.3808 192.056 95.5547 191.55 95.5547C191.372 95.5547 191.223 95.4059 191.223 95.2274C191.223 95.0787 191.104 94.9894 190.985 95.0787C190.866 95.1382 190.182 94.9597 189.497 94.6622C188.813 94.335 188.159 94.097 188.099 94.097C188.01 94.097 187.564 93.8887 187.117 93.621C185.928 92.9665 178.49 90.8841 175.337 90.3189C169.268 89.2777 161.772 88.8315 156.566 89.2182ZM293.558 136.429C293.975 136.489 295.373 136.638 296.682 136.757C312.954 138.065 331.339 143.331 347.403 151.304C355.227 155.201 362.991 159.782 367.93 163.411C368.822 164.066 370.726 165.434 372.124 166.446C384.44 175.34 397.976 188.757 408.358 202.352C409.964 204.464 414.04 210.414 414.04 210.652C414.04 210.801 414.129 210.979 414.278 211.039C414.516 211.128 416.807 214.549 419.008 218.119C420.971 221.302 424.69 228.055 427.308 233.291C437.69 254.055 444.027 277.021 446.347 302.308C447.061 309.864 447.061 324.143 446.377 330.866C445.306 340.951 442.212 355.082 439.773 360.912C439.416 361.805 438.583 363.828 437.988 365.375C435.965 370.432 431.383 379.267 430.074 380.576C429.747 380.903 429.569 381.141 429.658 381.141C429.807 381.141 428.468 383.164 425.493 387.418C424.839 388.341 423.827 389.679 423.262 390.364C422.697 391.048 421.626 392.327 420.882 393.219C417.372 397.473 407.971 405.952 402.438 409.879C398.898 412.378 393.87 415.65 393.543 415.65C393.394 415.65 393.216 415.769 393.156 415.888C393.127 416.037 392.472 416.483 391.729 416.899C390.985 417.316 389.527 418.149 388.456 418.773C384.678 420.915 374.534 425.556 369.12 427.609C359.868 431.119 348.058 434.54 338.508 436.474C324.973 439.211 312.805 440.639 296.087 441.531C291.208 441.769 272.496 441.68 269.164 441.382C268.272 441.323 265.118 441.115 262.173 440.936C251.077 440.282 242.271 439.181 229.896 436.92C217.491 434.659 207.763 431.922 194.644 427.014C190.003 425.288 180.603 420.886 175.962 418.327C172.838 416.572 167.305 413.151 166.829 412.675C166.74 412.586 165.817 411.931 164.746 411.217C160.046 408.004 155.971 404.702 152.014 400.924C150.973 399.943 149.991 399.08 149.842 399.05C149.337 398.842 143.357 392.089 141.126 389.174C134.73 380.814 131.131 374.716 127.59 366.237C122.652 354.427 119.856 342.736 118.606 328.784C118.071 322.983 118.16 308.674 118.755 302.159C119.35 295.793 120.659 286.63 121.879 280.442C124.407 267.472 129.732 250.575 134.611 240.133C135.176 238.913 136.158 236.771 136.783 235.373C138.508 231.595 143.417 222.373 145.678 218.773C148.296 214.549 152.698 207.975 154.87 205.03C157.19 201.876 161.385 196.462 161.772 196.105C161.92 195.956 165.52 191.821 166.085 191.137C167.602 189.293 173.998 182.748 177.033 179.892C179.145 177.929 181.078 176.114 181.346 175.846C182.239 175.043 187.415 170.789 190.628 168.231C202.676 158.711 218.711 149.935 234.061 144.432C246.347 140.029 257.889 137.56 270.354 136.638C272.734 136.459 275.203 136.251 275.858 136.191C277.464 136.043 292.606 136.251 293.558 136.429Z" fill="#111111"/>
<path d="M220.169 224.218C212.672 225.348 203.331 228.472 197.292 231.804C196.667 232.161 195.388 232.875 194.496 233.38C191.967 234.779 186.94 238.2 183.518 240.847C177.926 245.131 171.322 251.973 166.205 258.726C159.868 267.056 154.722 278.182 152.639 288.029C151.896 291.42 151.836 292.372 151.836 298.589C151.806 304.212 151.896 305.878 152.372 307.96C154.097 315.933 157.131 321.764 162.07 326.732C167.216 331.908 172.482 334.734 180.514 336.727C182.358 337.173 183.935 337.263 189.587 337.263C195.924 337.233 196.727 337.173 200.297 336.43C206.008 335.21 212.434 332.949 217.7 330.331C222.073 328.16 229.718 323.34 233.05 320.633C233.883 319.979 234.924 319.146 235.37 318.819C236.352 318.105 242.213 312.363 244.473 309.864C248.43 305.551 253.101 299.155 255.837 294.335C257.95 290.617 260.657 284.608 261.876 281.038C264.078 274.553 265.03 269.525 265.208 263.575C265.446 256.138 264.673 251.378 262.293 245.488C257.831 234.541 248.876 227.252 236.59 224.486C233.645 223.831 223.798 223.653 220.169 224.218Z" fill="#111111"/>
<path d="M332.499 223.89C332.439 223.95 331.636 224.099 330.744 224.188C328.394 224.456 324.764 225.467 321.67 226.716C319.023 227.787 314.59 230.257 313.49 231.268C313.162 231.565 312.805 231.803 312.686 231.803C312.478 231.803 307.778 236.563 307.599 236.98C307.57 237.069 306.945 238.051 306.231 239.151C303.583 243.286 301.62 248.076 300.489 253.312C299.746 256.733 299.746 265.509 300.489 270.03C302.155 280.294 307.004 291.687 313.579 300.939C317.625 306.621 324.645 314.296 329.554 318.402C330.625 319.294 331.666 320.187 331.874 320.395C332.112 320.603 333.57 321.674 335.147 322.805C348.623 332.443 362.396 337.441 375.515 337.471C391.223 337.5 403.182 330.628 409.429 317.926C412.106 312.512 413.147 308.466 413.594 301.713C414.367 290.319 409.816 275.147 401.992 263.159C397.381 256.078 390.628 248.225 385.035 243.435C372.63 232.815 357.25 225.556 344.071 224.099C341.364 223.801 332.767 223.623 332.499 223.89Z" fill="#111111"/>
<path d="M275.858 325.095C257.652 326.821 246.288 332.651 243.521 341.665C243.015 343.331 242.926 344.253 243.045 346.603C243.164 349.162 243.313 349.727 244.265 351.69C247.478 358.295 254.379 363.411 266.1 367.933C270.176 369.51 271.039 369.926 272.556 371.116C274.043 372.306 274.579 373.615 274.549 376.114C274.519 378.91 273.627 381.171 271.723 383.164C268.956 386.11 266.279 387.091 261.103 387.091C256.105 387.091 251.375 386.11 246.645 384.087C243.075 382.54 240.963 382.272 239.237 383.164C237.78 383.908 237.095 384.682 236.56 386.11C235.786 388.311 236.203 390.512 237.69 392.149C238.821 393.368 245.514 397.771 248.4 399.169C256.373 403.096 264.791 405.476 274.519 406.577C277.911 406.963 286.805 406.963 290.435 406.577C300.609 405.535 309.414 403.007 317.357 398.902C319.856 397.593 326.817 393.041 327.531 392.238C328.483 391.137 329.019 389.65 328.989 388.103C328.989 386.318 328.513 385.247 327.264 384.057C325.33 382.213 323.158 382.153 319.261 383.819C313.43 386.288 308.581 387.24 302.929 387.032C298.407 386.853 296.622 386.229 294.153 383.908C291.744 381.677 290.821 379.714 290.643 376.501C290.524 374.24 290.583 373.913 291.268 372.723C292.398 370.789 293.767 369.986 300.133 367.427C307.57 364.482 310.932 362.608 314.829 359.306C318.25 356.391 319.291 355.082 320.838 351.75C321.76 349.816 321.939 349.043 322.058 346.782C322.414 339.612 318.726 334.317 310.664 330.331C304.744 327.445 297.931 325.809 287.757 324.917C283.652 324.56 281.272 324.589 275.858 325.095Z" fill="#111111"/>
</svg>
